<svg id="Layer_1" data-name="Layer 1" xmlns="http://www.w3.org/2000/svg" viewBox="0 0 360.18 97.41"><defs><style>.cls-1{fill:#100e0f;}</style></defs><path class="cls-1" d="M189.41,271H159.14a1.41,1.41,0,0,0-1.41,1.41v14.8a1.42,1.42,0,0,0,1.41,1.42H171V307s-2.65.91-10,.91c-8.65,0-20.73-3.16-20.73-29.73s12.58-30.06,24.39-30.06c10.22,0,14.63,1.8,17.43,2.66a1.42,1.42,0,0,0,1.69-1.38l3.38-14.3a1.31,1.31,0,0,0-.54-1.11c-1.14-.81-8.08-4.69-25.62-4.69-20.21,0-40.93,8.59-40.93,49.92s23.73,47.48,43.72,47.48c16.56,0,26.6-7.07,26.6-7.07a1.2,1.2,0,0,0,.46-1.07V272.4A1.41,1.41,0,0,0,189.41,271Z" transform="translate(-120.04 -229.3)"/><path class="cls-1" d="M345.39,234.25a1.4,1.4,0,0,0-1.4-1.42H327a1.42,1.42,0,0,0-1.42,1.42v32.93H299V234.25a1.4,1.4,0,0,0-1.4-1.42h-17a1.41,1.41,0,0,0-1.41,1.42v89.18a1.42,1.42,0,0,0,1.41,1.42h17a1.41,1.41,0,0,0,1.4-1.42V285.28h26.57l-.05,38.15a1.42,1.42,0,0,0,1.41,1.42H344a1.41,1.41,0,0,0,1.4-1.42Z" transform="translate(-120.04 -229.3)"/><path class="cls-1" d="M221.57,246a11,11,0,1,0-11,11.1A11,11,0,0,0,221.57,246Z" transform="translate(-120.04 -229.3)"/><path class="cls-1" d="M220.35,304.61V263.45a1.42,1.42,0,0,0-1.41-1.42H202a1.62,1.62,0,0,0-1.48,1.58v59c0,1.73,1.08,2.25,2.48,2.25h15.31c1.68,0,2.09-.83,2.09-2.28Z" transform="translate(-120.04 -229.3)"/><path class="cls-1" d="M410.16,262.16H393.25a1.42,1.42,0,0,0-1.41,1.43v43.73a19.09,19.09,0,0,1-10.39,3.14c-6.1,0-7.72-2.77-7.72-8.74V263.59a1.42,1.42,0,0,0-1.41-1.43H355.16a1.43,1.43,0,0,0-1.41,1.43v41c0,17.73,9.89,22.07,23.48,22.07,11.16,0,20.15-6.16,20.15-6.16a36.43,36.43,0,0,0,.62,3.63,1.49,1.49,0,0,0,1.25.77l10.92,0a1.43,1.43,0,0,0,1.41-1.43V263.59A1.42,1.42,0,0,0,410.16,262.16Z" transform="translate(-120.04 -229.3)"/><path class="cls-1" d="M456.38,260.16a31.81,31.81,0,0,0-16.14,4.29v-30.2a1.41,1.41,0,0,0-1.4-1.42H421.75a1.41,1.41,0,0,0-1.41,1.42v89.18a1.42,1.42,0,0,0,1.41,1.42h11.86a1.4,1.4,0,0,0,1.23-.75,27.19,27.19,0,0,0,.72-4.12s7,6.63,20.22,6.63c15.53,0,24.44-7.88,24.44-35.37S466,260.16,456.38,260.16Zm-6.67,50.25a20.24,20.24,0,0,1-9.84-2.85V279.32a22.54,22.54,0,0,1,8.74-2.83c6.09-.55,12,1.29,12,15.82C460.57,307.63,457.92,310.65,449.71,310.41Z" transform="translate(-120.04 -229.3)"/><path class="cls-1" d="M269.33,262H256.55l0-16.89c0-.64-.33-1-1.07-1H238c-.68,0-1,.3-1,1v17.45s-8.73,2.11-9.32,2.28a1.42,1.42,0,0,0-1,1.36v11a1.41,1.41,0,0,0,1.4,1.42H237V305c0,19.59,13.74,21.52,23,21.52a38.72,38.72,0,0,0,10.14-1.67,1.32,1.32,0,0,0,.8-1.28l0-12.06a1.45,1.45,0,0,0-1.41-1.43c-.75,0-2.66.31-4.62.31-6.28,0-8.4-2.92-8.4-6.7s0-25.08,0-25.08h12.79a1.41,1.41,0,0,0,1.41-1.42V263.44A1.42,1.42,0,0,0,269.33,262Z" transform="translate(-120.04 -229.3)"/></svg>